<?xml version="1.0" encoding="utf-8"?>
<!-- Generator: Adobe Illustrator 17.0.0, SVG Export Plug-In . SVG Version: 6.00 Build 0)  -->
<!DOCTYPE svg PUBLIC "-//W3C//DTD SVG 1.0//EN" "http://www.w3.org/TR/2001/REC-SVG-20010904/DTD/svg10.dtd">
<svg version="1.0" id="Layer_1" xmlns="http://www.w3.org/2000/svg" xmlns:xlink="http://www.w3.org/1999/xlink" x="0px" y="0px"
	 width="314px" height="110px" viewBox="0 0 314 110" enable-background="new 0 0 314 110" xml:space="preserve">
<g>
	<g>
		<path fill="#F5F5F5" d="M147.216,2h-0.644l-0.058,0.848l-3.207,0.026c-3.601,0-3.605-0.01-3.674-0.333
			c-0.084-0.363-0.237-0.475-0.626-0.475c-0.365,0-0.532,0.117-0.661,0.452c-0.123,0.294-0.128,0.493-0.021,0.79
			c0.046,0.119,0.098,0.511,0.098,0.884c0,0.485,0,1.149,0.68,1.149c0.241,0,0.56-0.152,0.712-0.873
			c0.022-0.095,0.27-0.235,0.569-0.235c0.094,0,0.183,0.014,0.257,0.042c0.22,0.081,0.599,0.104,1.112,0.063
			c0.21-0.019,0.358-0.03,0.469-0.03c0.148,0,0.158,0.011,0.22,0.081c0.07,0.08,0.099,0.112,0.055,0.478
			c-0.036,0.254-0.04,0.62,0.056,0.793c0.028,0.076,0.102,0.528,0.143,1.119c0.053,0.895,0.047,0.901-0.097,1.058
			c-0.086,0.093-0.177,0.156-0.151,0.159c-0.374,0-0.966,0.899-0.966,1.253c0,0.269,0.133,0.464,0.395,0.581
			c0.089,0.041,0.185,0.081,0.291,0.081c0.218,0,0.354-0.156,0.534-0.363c0.074-0.094,0.118-0.141,0.127-0.161
			c0.079,0.073,0.108,0.301-0.018,0.546c-0.237,0.439-0.241,1.753-0.005,2.164c0.152,0.262,0.139,0.567-0.032,0.726
			c-0.106,0.1-0.207,0.142-0.555,0.142c-0.542,0-1.12,0.059-1.12,0.756c0,0.192,0.049,0.466,0.188,0.607
			c0.16,0.159,0.561,0.183,0.786,0.183c0.486,0,0.619-0.11,0.648-0.175c0.005-0.003,0.028-0.009,0.068-0.009
			c0.09,0,0.166,0.032,0.185,0.053c0.081,0.095,0.211,0.221,0.414,0.221c0.17,0,0.341-0.088,0.579-0.238
			c0.354-0.224,0.869-0.42,0.994-0.42c0.222,0,0.527-0.226,0.558-0.249c0.281-0.204,0.38-0.394,0.38-0.728
			c0-0.495-0.178-0.575-0.603-0.575c-0.208,0-0.549,0.049-0.753,0.129c-0.097,0.034-0.158,0.052-0.168,0.056l-0.048-0.045
			c-0.076-0.076-0.219-0.513-0.213-1.292c0.01-0.727-0.113-1.751-0.113-2.278V8.117l0.668-0.477
			c0.505-0.438,0.783-0.677,0.783-1.021c0-0.565-0.292-0.625-0.431-0.625c-0.245,0-0.49,0.181-0.743,0.356
			c-0.054,0.037-0.113,0.084-0.173,0.122c-0.044-0.19-0.1-0.598-0.178-1.435c-0.026-0.27-0.052-0.549,0.002-0.608
			c0.094-0.103,0.694-0.103,1.053-0.103l1.632,0.01l0.01,0.112c0.021,0.2,0.113,0.492,0.246,0.64c0.306,0.332,1,0.305,1.199-0.064
			c0.2-0.387,0.142-1.906-0.047-2.419C147.832,2.115,147.718,2,147.216,2z"/>
		<path fill="#F5F5F5" d="M161.53,4.418c0.19-0.04,0.466-0.147,0.593-0.26c0.151-0.123,0.249-0.337,0.262-0.574
			c0.013-0.228-0.055-0.433-0.185-0.562c-0.172-0.172-0.479-0.185-0.569-0.185c-0.121,0-0.344,0.02-0.452,0.127
			c-0.041,0.02-0.253,0.073-0.543,0.091c-0.533,0.045-1.42,0.172-1.669,0.333c-0.13,0.081-0.21,0.247-0.225,0.465
			c-0.014,0.219,0.035,0.507,0.212,0.653c0.132,0.114,0.314,0.131,0.412,0.131c0.061,0,0.12-0.006,0.19-0.022
			c0.065-0.018,0.101-0.021,0.104-0.036c0.098,0.124,0.069,0.972,0.058,1.333c-0.032,0.839-0.081,1.479-0.109,1.614l-0.026,0.129
			l-1.377-0.033c-1.373-0.023-1.701,0.001-1.831,0.153c-0.11,0.044-0.58,0.047-0.846,0.126c-0.451,0.138-1.024,0.221-1.318,0.221
			c-0.032,0-0.058-0.001-0.078-0.002c-0.037-0.194-0.013-0.713,0.005-1.103c0.037-0.795,0.075-1.618-0.129-2.011
			c-0.144-0.284-0.15-0.458-0.108-0.527c0.037-0.06,0.148-0.094,0.307-0.094c0.408,0,0.726-0.178,0.852-0.477
			c0.126-0.299,0.031-0.651-0.258-0.947c-0.193-0.187-0.362-0.311-0.561-0.311c-0.201,0-0.337,0.135-0.36,0.163
			c-0.017,0.008-0.125,0.05-0.618,0.05l-0.186-0.001c-0.16-0.004-0.291-0.006-0.4-0.006c-0.481,0-0.638,0.056-0.88,0.309
			c-0.097,0.096-0.322,0.341-0.322,0.54c0,0.36,0.477,0.68,0.852,0.68c0.07,0,0.199,0,0.199,0.485c0,0.193,0.027,1.125,0.077,2.145
			c0.076,1.414,0.038,1.754,0.009,1.828c-0.056,0.106-0.161,0.305-0.316,3.594c-0.015,0.358-0.027,0.641-0.017,0.664l-0.071,0.025
			c-0.459,0.136-0.733,0.458-0.733,0.861c0,0.718,0.711,0.718,1.463,0.718c0.821,0,0.967-0.01,1.299-0.354
			c0.253-0.265,0.348-0.525,0.282-0.774c-0.073-0.275-0.338-0.487-0.788-0.628c-0.014-0.128,0.006-0.464,0.02-0.695
			c0.032-0.546,0.102-0.987,0.138-1.083c0.085-0.226,0.088-0.644,0.053-0.958c-0.016-0.138-0.064-0.281,0.043-0.401
			c0.052-0.058,0.206,0.188,0.436,0.188h0.084c0.327,0,0.838-0.324,1.173-0.374c0.241-0.035,2.22-0.369,3.274-0.369
			c0.399,0,0.518-0.039,0.514-0.055c0.103,0.118,0.217,0.622,0.167,0.761c-0.075,0.151-0.104,0.363-0.021,0.485
			c0.024,0.091,0.079,0.686,0.099,1.517c0.007,0.411,0.02,1.151-0.026,1.339c-0.138-0.049-0.378-0.004-0.528,0.051
			c-0.298,0.113-0.42,0.291-0.42,0.615c0,0.19,0.073,0.444,0.218,0.566c0.198,0.16,1.085,0.229,1.588,0.255l0.063,0.002
			c0.251,0,1.175-0.14,1.366-0.253c0.132-0.087,0.211-0.249,0.224-0.456c0.014-0.213-0.045-0.526-0.241-0.694
			c-0.155-0.155-0.446-0.236-0.654-0.236c-0.052,0-0.097-0.005-0.132-0.011c-0.033-0.277-0.029-1.026,0.021-1.291
			c0.017-0.073,0.088-0.448-0.056-0.604c-0.134-0.359-0.146-3.679-0.013-4.04c0.114-0.289,0.142-0.708,0.104-1.604
			C161.173,4.486,161.173,4.486,161.53,4.418z M160.603,14.541C160.603,14.541,160.603,14.541,160.603,14.541l0,0.002
			L160.603,14.541z"/>
		<path fill="#F5F5F5" d="M175.662,12.622c-0.045-0.61-0.087-1.187-0.707-1.187c-0.69,0-0.69,0.674-0.69,0.928
			c0,0.515,0,0.622-0.869,0.659c-1.36,0.061-1.562,0.054-2.073,0.033c-0.268-0.01-0.618-0.024-1.257-0.034
			c-0.888-0.011-1.113-0.06-1.147-0.07c-0.06-0.105-0.029-0.843-0.011-1.284c0.05-1.149,0.028-1.489-0.115-1.818
			c-0.074-0.175-0.074-0.278-0.052-0.312c0.026-0.04,0.139-0.086,0.366-0.086c0.332,0,0.625-0.075,0.909-0.146
			c0.283-0.072,0.551-0.14,0.859-0.14c0.295,0,0.674-0.027,0.788-0.143c0.024-0.018,0.118-0.057,0.2-0.069
			c0.406-0.039,0.463-0.303,0.492-0.616c0.017-0.177,0.006-0.523-0.141-0.688c-0.17-0.21-0.503-0.226-0.602-0.226
			c-0.118,0-0.338,0.021-0.427,0.122c-0.05,0.021-0.298,0.07-0.652,0.088c-0.625,0.039-1.007,0.135-1.634,0.413
			c-0.046,0.021-0.063,0.023-0.063,0.024c-0.005-0.001-0.026-0.012-0.081-0.059c-0.073-0.065-0.106-0.121-0.097-0.756
			c0.01-0.987-0.134-2.543-0.323-2.99c-0.048-0.123-0.059-0.167-0.037-0.189l0.066-0.022l0.004-0.004
			c0.092,0,0.221,0.021,0.415,0.056c0.312,0.059,0.81,0.084,1.118,0.05c0.629-0.079,0.849-0.08,1.513,0.001
			c0.102,0.009,0.204,0.014,0.302,0.014c0.137,0,0.395-0.01,0.592-0.084c0.086-0.04,0.369-0.091,0.636-0.101l0.093-0.001
			c0.237,0,0.254,0.009,0.437,0.228c0.127,0.151,0.226,0.393,0.238,0.523c0.035,0.351,0.124,0.538,0.517,0.587
			c0.068,0.008,0.104,0.012,0.159,0.012c0.639,0,0.613-0.579,0.613-1.732V2h-0.58c-0.205,0-0.633,0.035-0.633,0.456
			c-0.002,0.026-0.037,0.12-0.092,0.17c-0.084,0.058-0.715,0.066-0.922,0.066c-0.378,0-0.893-0.003-1.6-0.015l-0.575-0.006
			c-1.173-0.017-2.16-0.026-2.199-0.02c-0.135,0-0.653,0.01-1.151,0.02c-0.838,0.016-1.392,0.027-1.392,0.613
			c0,0.201,0.104,0.416,0.286,0.589c0.26,0.249,0.612,0.321,0.815,0.205c0.015-0.007,0.027-0.014,0.038-0.019
			c0.061,0.212,0.07,0.834,0.073,1.053c0.021,1.412,0.109,2.805,0.202,4.28c0.036,0.569,0.072,1.145,0.104,1.729
			c0.073,1.527,0.078,1.751-0.01,1.825c-0.062,0.054-0.181,0.077-0.51,0.046c-0.117-0.012-0.222-0.018-0.316-0.018
			c-0.58,0-0.875,0.253-0.875,0.753c0,0.213,0.018,0.453,0.222,0.61c0.174,0.133,0.437,0.161,0.777,0.161
			c0.189,0,0.424-0.009,0.717-0.024l0.101-0.005c1.425-0.075,1.416-0.084,2.148,0.03l0.071,0.011
			c0.404,0.06,0.913,0.108,1.141,0.108h0.001c0.346-0.009,2.621-0.152,3.297-0.221c0.038-0.004,0.073-0.006,0.142-0.003
			c0.023,0.013,0.073,0.088,0.149,0.22c0.171,0.307,0.412,0.659,0.755,0.659c0.103,0,0.202-0.031,0.295-0.091
			C175.748,15.014,175.832,14.621,175.662,12.622z"/>
	</g>
	<g>
		<path fill="#F5F5F5" d="M3.975,37c0.463,0,0.543,0.064,0.639,0.479c0.191,0.894,0.287,0.894,6.542,0.894l5.744-0.016
			c0.031-0.453,0.063-0.905,0.096-1.356h0.687c0.67,0,0.702,0.032,0.957,0.686c0.287,0.782,0.352,3.144,0.096,3.638
			c-0.207,0.383-0.973,0.399-1.324,0.016c-0.128-0.144-0.271-0.527-0.303-0.83l-0.048-0.558l-2.441-0.016
			c-2.984-0.016-3,0-2.841,1.644c0.191,2.042,0.335,2.809,0.511,2.872c0.41,0.137,2.138-1.883,2.138-0.271
			c0,0.367-0.207,0.654-1.053,1.388l-1.037,0.925v1.596c0,0.878-0.016,2.585-0.032,3.798c-0.016,1.851,0.032,2.234,0.256,2.458
			c0.224,0.239,0.351,0.239,0.798,0.08c0.287-0.112,0.798-0.191,1.117-0.191c0.558,0,0.59,0.016,0.59,0.542
			c0,0.431-0.111,0.622-0.463,0.877c-0.255,0.192-0.559,0.335-0.686,0.335c-0.336,0-1.277,0.383-1.883,0.766
			c-0.654,0.415-0.846,0.431-1.117,0.112c-0.224-0.271-0.894-0.319-1.037-0.08c-0.144,0.223-1.58,0.191-1.804-0.032
			c-0.111-0.112-0.191-0.431-0.191-0.718c0-0.654,0.335-0.846,1.452-0.846c0.639,0,0.926-0.08,1.213-0.351
			c0.431-0.399,0.479-1.117,0.128-1.724c-0.319-0.558-0.319-2.585,0.016-3.207c0.303-0.59,0.239-1.245-0.144-1.484
			c-0.239-0.144-0.367-0.08-0.734,0.383c-0.431,0.495-0.494,0.526-0.877,0.351c-0.287-0.128-0.415-0.303-0.415-0.59
			c0-0.447,0.877-1.676,1.196-1.676c0.096,0,0.352-0.175,0.559-0.399c0.352-0.383,0.367-0.462,0.271-2.074
			c-0.063-0.925-0.191-1.835-0.271-2.011c-0.096-0.175-0.128-0.638-0.063-1.101c0.08-0.654,0.048-0.861-0.191-1.133
			c-0.271-0.303-0.415-0.319-1.5-0.223c-0.767,0.063-1.372,0.032-1.676-0.08c-0.733-0.271-1.803,0.064-1.931,0.623
			c-0.159,0.75-0.431,1.133-0.782,1.133c-0.559,0-0.718-0.319-0.718-1.5c0-0.606-0.08-1.34-0.191-1.627
			c-0.144-0.399-0.128-0.623,0.032-1.005C3.416,37.079,3.544,37,3.975,37z"/>
		<path fill="#F5F5F5" d="M31.569,37.67c0.304,0.303,0.224,0.846-0.207,1.245c-0.367,0.351-0.463,0.367-0.91,0.191
			c-0.431-0.16-0.558-0.144-0.798,0.08c-0.335,0.303-0.383,1.229-0.096,1.915c0.096,0.239,0.239,0.989,0.319,1.644
			c0.257,2.108,0.739,6.061,0.846,7.579c0.096,1.389,0.335,2.697,0.526,3.064c0.384,0.686,0.862,0.335,1.165-0.83
			c0.239-0.974,0.91-2.649,1.165-2.936c0.144-0.16,0.255-0.415,0.255-0.591c0-0.319,0.814-2.681,1.102-3.239
			c0.096-0.175,0.176-0.51,0.176-0.75c0-0.542,0.718-1.34,1.212-1.34c0.367,0,0.862,0.734,0.862,1.277
			c0,0.16,0.096,0.367,0.224,0.462c0.127,0.096,0.303,0.495,0.398,0.862c0.096,0.383,0.319,0.83,0.511,1.005
			c0.463,0.415,1.946,2.665,2.441,3.734c0.974,2.042,1.213,2.41,1.5,2.362c0.351-0.064,0.559-1.325,0.83-4.995
			c0.205-2.713,0.634-4.115,0.925-6.542c0.064-0.526,0.224-1.133,0.335-1.34c0.16-0.287,0.16-0.462,0.032-0.75
			c-0.144-0.319-0.287-0.383-0.926-0.383c-1.292-0.016-1.675-0.575-0.909-1.34c0.494-0.479,0.846-0.511,1.532-0.16
			c0.558,0.287,1.994,0.239,2.792-0.096c0.463-0.208,0.543-0.191,0.83,0.08c0.702,0.623,0.303,1.34-0.941,1.691
			c-0.399,0.112-0.782,0.255-0.878,0.335c-0.08,0.08-0.159,0.734-0.176,1.452c0,0.718-0.096,1.627-0.207,2.026
			c-0.224,0.798-0.431,2.425-0.639,4.946c-0.079,0.926-0.207,1.963-0.303,2.314s-0.256,0.973-0.335,1.404
			c-0.096,0.415-0.239,0.894-0.336,1.069c-0.096,0.191-0.159,0.67-0.127,1.085l0.048,0.75l0.813,0.096
			c0.447,0.063,0.957,0.191,1.149,0.287c0.383,0.208,0.479,0.83,0.159,1.101c-0.271,0.207-6.207,0.207-6.463,0
			c-0.51-0.415,0.112-1.373,0.767-1.197c0.463,0.127,0.781-0.032,0.781-0.383c0-0.335-0.718-1.691-1.101-2.074
			c-0.436-0.436-1.043-1.583-1.404-2.154c-0.432-0.63-2.395-4.926-2.809-2.824c-0.224,1.165-0.463,1.963-0.894,2.92
			c-0.846,1.915-0.957,2.154-1.436,2.984c-0.447,0.782-0.463,0.83-0.192,1.069c0.16,0.144,0.511,0.255,0.798,0.255
			c0.846,0,1.612,0.399,1.612,0.846c0,0.606-0.367,0.798-1.229,0.686c-0.432-0.064-0.941-0.096-1.165-0.112
			c-0.224,0-0.75,0-1.197-0.016c-1.771-0.016-3.048,0.127-3.207,0.367c-0.128,0.208-0.926,0.176-1.148-0.048
			c-0.575-0.574,0.239-1.563,1.276-1.563c0.303,0,0.622-0.08,0.733-0.191c0.24-0.24,0.256-1.165,0.017-1.596
			c-0.316-0.58-0.468-2.151-0.639-2.92c-0.467-2.335-0.629-4.651-0.941-7.101c-0.096-0.75-0.191-1.644-0.224-1.995
			c-0.063-0.941-0.271-1.883-0.462-2.122c-0.08-0.096-0.463-0.192-0.862-0.192c-1.229,0-1.707-0.558-1.021-1.181
			c0.224-0.208,0.447-0.255,0.862-0.175c0.319,0.063,0.686,0.032,0.861-0.064C27.66,37.415,31.33,37.43,31.569,37.67z"/>
		<path fill="#F5F5F5" d="M59.666,48.488c-0.958,0-1.261,0.415-0.91,1.245c0.208,0.479,0.239,1.021,0.16,2.856
			c-0.08,1.947-0.048,2.298,0.159,2.473c0.176,0.144,0.861,0.208,2.187,0.224c3.121,0.046,2.106,0.158,5.585,0
			c1.531-0.064,1.851-0.319,1.851-1.516c0-0.83,0.207-1.133,0.734-1.133c0.526,0,0.67,0.287,0.766,1.596
			c0.224,2.633,0.191,3.702-0.111,3.894c-0.367,0.239-0.719,0-1.165-0.798c-0.319-0.559-0.415-0.623-0.894-0.575
			c-1.102,0.112-4.867,0.351-5.474,0.367c-0.351,0-1.181-0.08-1.835-0.176c-1.34-0.207-1.229-0.207-3.957-0.063
			c-2.202,0.111-2.426,0.032-2.426-0.83c0-0.702,0.415-0.925,1.532-0.813c0.67,0.063,0.926,0.032,1.165-0.176
			c0.303-0.255,0.303-0.383,0.159-3.383c-0.195-3.485-0.463-6.755-0.511-10.021c-0.032-2.09-0.159-2.425-0.798-2.09
			c-0.415,0.24-1.229-0.399-1.229-0.957c0-0.479,0.271-0.575,1.915-0.606c0.829-0.016,1.691-0.032,1.915-0.032
			c0.223-0.016,2.297,0.016,4.627,0.048c3.702,0.064,4.261,0.048,4.5-0.175c0.159-0.144,0.287-0.383,0.287-0.559
			c0-0.223,0.128-0.287,0.639-0.287h0.638v2.138c0,2.346-0.08,2.553-0.909,2.458c-0.383-0.048-0.447-0.128-0.495-0.606
			c-0.031-0.319-0.239-0.798-0.494-1.101c-0.399-0.479-0.526-0.542-1.213-0.526c-0.431,0.016-0.989,0.096-1.229,0.207
			c-0.256,0.096-0.767,0.128-1.276,0.08c-1.054-0.128-1.596-0.128-2.617,0c-0.447,0.048-1.229,0.016-1.739-0.08
			c-0.798-0.144-0.989-0.144-1.181,0.064c-0.208,0.208-0.208,0.319-0.032,0.766c0.271,0.638,0.526,3.111,0.511,4.835
			c-0.016,1.101,0.032,1.34,0.303,1.58c0.256,0.223,0.399,0.255,0.687,0.127c0.974-0.431,1.563-0.59,2.585-0.654
			c0.622-0.032,1.181-0.127,1.276-0.207c0.224-0.224,0.974-0.176,1.181,0.08c0.112,0.127,0.176,0.511,0.144,0.846
			c-0.048,0.511-0.111,0.623-0.446,0.654c-0.224,0.032-0.463,0.127-0.559,0.208c-0.08,0.08-0.559,0.144-1.053,0.144
			C61.505,48.01,60.691,48.488,59.666,48.488z"/>
		<path fill="#F5F5F5" d="M79.208,37.766c1.42,0.063,2.01,0.239,2.297,0.702c0.224,0.367-0.287,0.925-0.877,0.925
			c-0.239,0-0.495,0.08-0.543,0.16c-0.048,0.096-0.096,2.968-0.079,6.398c0,4.309-0.048,6.399-0.176,6.734
			c-0.112,0.351-0.128,0.75-0.032,1.229c0.128,0.702,0.144,0.718,0.83,0.766c0.383,0.032,0.909-0.032,1.196-0.144
			c0.399-0.176,3.702-0.431,5.904-0.463c0.861-0.016,1.037-0.223,1.085-1.324c0.048-0.958,0.063-0.989,0.495-1.037
			c0.606-0.08,0.909,0.223,0.909,0.861c0,0.303,0.096,0.686,0.191,0.862c0.159,0.239,0.159,0.351,0,0.511
			c-0.128,0.127-0.191,0.766-0.191,1.883c0,1.787-0.096,2.074-0.734,2.074c-0.511,0-0.67-0.303-0.733-1.276
			c-0.048-0.798-0.096-0.894-0.495-1.021c-0.319-0.111-0.59-0.096-0.957,0.048c-0.574,0.24-2.154,0.511-2.937,0.511
			c-0.606-0.016-0.367-0.016-4.148,0.08c-3.224,0.08-3.559,0.016-3.559-0.718c0-0.575,0.399-0.941,1.117-1.005l0.559-0.048
			l0.016-1.596c0.048-2.186,0.048-1.851-0.031-7.053c-0.064-3.925-0.032-4.755,0.175-5.25c0.304-0.718,0.096-1.181-0.511-1.181
			c-0.446,0-1.005-0.399-1.005-0.734c0-0.112,0.207-0.367,0.446-0.575C77.82,37.75,77.979,37.718,79.208,37.766z"/>
		<path fill="#F5F5F5" d="M111.684,43.829c0,0.447-1.563,5.154-1.771,5.361c-0.079,0.096-0.144,0.271-0.144,0.415
			c0,0.127-0.127,0.431-0.271,0.638c-0.336,0.479-0.687,1.388-0.687,1.835c0,0.176-0.191,0.606-0.398,0.958
			c-0.687,1.101-0.479,1.835,0.526,1.835c0.733,0,1.148,0.255,1.148,0.702c0,0.574-0.287,0.702-1.755,0.798
			c-0.75,0.048-1.739,0.127-2.202,0.175c-0.591,0.08-1.021,0.032-1.468-0.144c-0.654-0.255-1.373-0.223-2.043,0.112
			c-0.526,0.255-0.894-0.032-0.957-0.718c-0.048-0.622,0.287-0.877,1.229-0.957c0.303-0.032,0.606-0.16,0.702-0.303
			c0.159-0.239,0.08-0.479-1.324-3.973c-0.651-1.627-0.854-2.349-1.469-4.229c-1.276-3.877-1.42-4.26-1.675-4.563
			c-0.096-0.127-0.239-0.447-0.304-0.702c-0.144-0.574-0.318-0.718-0.909-0.718c-0.654,0-1.069-0.271-1.069-0.702
			c0-0.511,0.256-0.686,1.197-0.798c1.596-0.176,2.233-0.287,2.394-0.431c0.239-0.24,0.718-0.16,1.229,0.191
			c0.367,0.271,0.463,0.431,0.415,0.846c-0.048,0.462-0.096,0.495-0.767,0.574l-0.718,0.08l0.048,0.638
			c0.032,0.351,0.207,0.894,0.415,1.197c0.427,0.623,0.686,1.728,0.909,2.489c0.08,0.271,0.144,0.606,0.144,0.766
			s0.144,0.463,0.319,0.686c0.176,0.224,0.319,0.591,0.319,0.798c0,0.208,0.111,0.591,0.239,0.83
			c0.287,0.574,2.154,6.127,2.154,6.446c0,0.112,0.128,0.335,0.287,0.495c0.287,0.24,0.319,0.24,0.718-0.159
			c0.239-0.24,0.431-0.543,0.431-0.67c0-0.463,0.606-2.186,1.293-3.67c0.255-0.542,0.463-1.181,0.463-1.42s0.128-0.574,0.287-0.75
			c0.271-0.303,0.702-1.548,1.148-3.287c0.096-0.399,0.336-1.149,0.511-1.675c0.623-1.787,0.526-2.473-0.319-2.473
			c-0.542-0.016-0.989-0.335-0.989-0.75c0-0.59,0.304-0.686,2.234-0.686c1.659,0,1.898-0.032,2.154-0.319
			c0.159-0.175,0.398-0.319,0.526-0.319c0.383,0,0.989,0.654,0.989,1.053c0,0.383-0.734,1.021-1.181,1.021
			c-0.144,0-0.511,0.111-0.813,0.223c-0.415,0.176-0.559,0.335-0.559,0.623C112.323,41.653,111.684,43.365,111.684,43.829z"/>
		<path fill="#F5F5F5" d="M126.504,48.488c-0.958,0-1.261,0.415-0.91,1.245c0.208,0.479,0.239,1.021,0.16,2.856
			c-0.08,1.947-0.048,2.298,0.159,2.473c0.176,0.144,0.861,0.208,2.187,0.224c3.121,0.046,2.106,0.158,5.585,0
			c1.531-0.064,1.851-0.319,1.851-1.516c0-0.83,0.207-1.133,0.734-1.133c0.526,0,0.67,0.287,0.766,1.596
			c0.224,2.633,0.191,3.702-0.111,3.894c-0.367,0.239-0.719,0-1.165-0.798c-0.319-0.559-0.415-0.623-0.894-0.575
			c-1.102,0.112-4.867,0.351-5.474,0.367c-0.351,0-1.181-0.08-1.835-0.176c-1.34-0.207-1.229-0.207-3.957-0.063
			c-2.202,0.111-2.426,0.032-2.426-0.83c0-0.702,0.415-0.925,1.532-0.813c0.67,0.063,0.926,0.032,1.165-0.176
			c0.303-0.255,0.303-0.383,0.159-3.383c-0.195-3.485-0.463-6.755-0.511-10.021c-0.032-2.09-0.159-2.425-0.798-2.09
			c-0.415,0.24-1.229-0.399-1.229-0.957c0-0.479,0.271-0.575,1.915-0.606c0.829-0.016,1.691-0.032,1.915-0.032
			c0.223-0.016,2.297,0.016,4.627,0.048c3.702,0.064,4.261,0.048,4.5-0.175c0.159-0.144,0.287-0.383,0.287-0.559
			c0-0.223,0.128-0.287,0.639-0.287h0.638v2.138c0,2.346-0.08,2.553-0.909,2.458c-0.383-0.048-0.447-0.128-0.495-0.606
			c-0.031-0.319-0.239-0.798-0.494-1.101c-0.399-0.479-0.526-0.542-1.213-0.526c-0.431,0.016-0.989,0.096-1.229,0.207
			c-0.256,0.096-0.767,0.128-1.276,0.08c-1.054-0.128-1.596-0.128-2.617,0c-0.447,0.048-1.229,0.016-1.739-0.08
			c-0.798-0.144-0.989-0.144-1.181,0.064c-0.208,0.208-0.208,0.319-0.032,0.766c0.271,0.638,0.526,3.111,0.511,4.835
			c-0.016,1.101,0.032,1.34,0.303,1.58c0.256,0.223,0.399,0.255,0.687,0.127c0.974-0.431,1.563-0.59,2.585-0.654
			c0.622-0.032,1.181-0.127,1.276-0.207c0.224-0.224,0.974-0.176,1.181,0.08c0.112,0.127,0.176,0.511,0.144,0.846
			c-0.048,0.511-0.111,0.623-0.446,0.654c-0.224,0.032-0.463,0.127-0.559,0.208c-0.08,0.08-0.559,0.144-1.053,0.144
			C128.343,48.01,127.529,48.488,126.504,48.488z"/>
		<path fill="#F5F5F5" d="M145.209,48.999c0.511,0.511,0.574,0.526,1.755,0.495c1.468-0.048,2.474-0.303,2.841-0.702
			c0.335-0.367,0.829-0.383,1.212-0.032c0.239,0.208,0.287,0.511,0.287,1.675c0,1.66-0.144,2.042-0.781,2.042
			c-0.479,0-0.862-0.335-1.037-0.91c-0.16-0.526-0.83-0.686-1.771-0.415c-0.916,0.271-2.16,0.274-2.888,0.702
			c-0.495,0.271-0.527,0.271-0.767,0c-0.144-0.16-0.255-0.415-0.255-0.591c0-0.175-0.096-0.415-0.191-0.51
			c-0.16-0.16-0.16-0.271,0-0.511c0.096-0.175,0.191-0.495,0.191-0.734C143.805,48.53,144.309,48.145,145.209,48.999z"/>
		<path fill="#F5F5F5" d="M162.445,38.372c0.75,0.766,0.384,1.66-0.701,1.66c-0.958,0-1.229,0.606-0.702,1.644
			c0.546,1.055-0.164,5.001,0.287,5.361c0.207,0.176,1.707,0,2.744-0.319c0.271-0.08,0.702-0.144,0.989-0.144
			c0.271,0,0.543-0.08,0.606-0.176c0.08-0.127,0.894-0.16,2.745-0.127l2.648,0.063l0.111-0.558c0.064-0.303,0.144-1.548,0.191-2.761
			c0.08-2.441-0.031-2.792-0.798-2.585c-0.223,0.048-0.494,0.016-0.622-0.096c-0.271-0.223-0.287-1.037-0.032-1.197
			c0.271-0.175,1.469-0.399,2.602-0.495c0.526-0.032,1.021-0.144,1.101-0.223c0.224-0.208,0.958-0.176,1.181,0.048
			c0.288,0.287,0.24,1.005-0.096,1.276c-0.144,0.127-0.51,0.287-0.813,0.351c-0.926,0.175-0.941,0.223-0.846,2.409
			c0.063,1.484,0.016,2.106-0.144,2.505c-0.271,0.638-0.239,6.766,0.048,7.101c0.096,0.111,0.111,0.431,0.048,0.718
			c-0.111,0.575-0.111,2.346,0.016,2.553c0.048,0.064,0.304,0.127,0.575,0.127c0.271,0,0.638,0.112,0.798,0.271
			c0.335,0.287,0.383,1.085,0.096,1.276c-0.191,0.112-1.756,0.383-2.123,0.351c-1.212-0.064-2.266-0.208-2.425-0.335
			c-0.112-0.096-0.208-0.383-0.208-0.623c0-0.367,0.096-0.51,0.432-0.638c0.223-0.08,0.51-0.127,0.605-0.08
			c0.112,0.032,0.288,0,0.415-0.08c0.176-0.111,0.208-0.606,0.176-2.569c-0.032-1.34-0.128-2.553-0.191-2.681
			c-0.08-0.128-0.063-0.351,0.016-0.511c0.176-0.335-0.063-1.516-0.366-1.819c-0.388-0.387-6.104,0.172-6.671,0.255
			c-0.653,0.096-1.563,0.176-2.026,0.16c-1.133-0.016-1.388,0.351-1.229,1.739c0.064,0.575,0.032,1.149-0.063,1.404
			s-0.208,1.117-0.256,1.931c-0.079,1.309-0.063,1.484,0.191,1.564c1.182,0.351,1.437,0.941,0.734,1.675
			c-0.431,0.447-0.511,0.463-1.867,0.463c-1.644,0-2.026-0.144-2.026-0.782c0-0.479,0.335-0.862,0.926-1.037
			c0.383-0.128,0.383-0.08,0.446-1.532c0.176-3.75,0.336-5.553,0.479-5.824c0.127-0.223,0.144-1.181,0.031-3.271
			c-0.079-1.627-0.127-3.223-0.127-3.559c0-0.846-0.24-1.229-0.75-1.229c-0.447,0-1.006-0.399-1.006-0.718
			c0-0.112,0.191-0.383,0.415-0.606c0.383-0.399,0.495-0.415,1.835-0.383c0.941,0.016,1.468-0.032,1.611-0.175
			C161.744,37.861,161.966,37.909,162.445,38.372z"/>
		<path fill="#F5F5F5" d="M186.296,38.26c0.431,0.479,0.271,1.005-0.431,1.34c-0.718,0.351-0.894,0.861-0.591,1.771
			c0.208,0.606,0.239,2.138,0.16,6c-0.032,2.01,0.207,4.324,0.542,4.946c0.367,0.702,1.309,1.708,1.883,2.011
			c0.671,0.351,2.952,0.303,4.021-0.096c0.989-0.383,2.266-1.612,2.409-2.346c0.096-0.431,0.271-1.165,0.495-1.963
			c0.224-0.861,0.415-2.745,0.511-5.345c0.079-1.771,0.191-2.84,0.319-3.08c0.335-0.575-0.017-0.878-0.83-0.766
			c-0.559,0.08-0.718,0.032-1.165-0.367c-0.542-0.479-0.67-0.973-0.319-1.26c0.191-0.16,1.133-0.288,3.511-0.447
			c1.053-0.08,1.309-0.048,1.563,0.191c0.654,0.59,0.208,1.819-0.67,1.819c-0.239,0-0.495,0.096-0.574,0.191
			c-0.064,0.112-0.096,1.229-0.064,2.458c0.032,1.516-0.016,2.298-0.127,2.362c-0.112,0.08-0.176,0.734-0.176,1.755
			c0,0.894-0.048,1.691-0.111,1.755c-0.224,0.208-0.527,1.309-0.527,1.883c0,0.319-0.063,0.639-0.159,0.687
			c-0.08,0.048-0.159,0.223-0.159,0.383c0,0.399-0.415,1.181-0.814,1.548c-0.191,0.16-0.398,0.463-0.479,0.654
			c-0.08,0.207-0.224,0.367-0.351,0.367c-0.112,0-0.495,0.288-0.83,0.638c-0.367,0.367-0.782,0.639-0.974,0.639
			c-0.207,0-0.415,0.063-0.463,0.159c-0.127,0.208-3.383,0.208-3.51,0c-0.048-0.096-0.224-0.159-0.384-0.159
			c-0.366,0-1.196-0.415-1.452-0.718c-0.111-0.127-0.287-0.239-0.383-0.239c-0.303,0-1.611-1.468-1.931-2.154
			c-0.463-0.989-0.606-2.058-0.574-4.356c0.096-9.239,0.176-8.617-1.053-8.282c-0.591,0.144-0.719,0.144-1.006-0.127
			c-0.574-0.527-0.335-1.245,0.559-1.596c0.176-0.064,0.861-0.208,1.516-0.319C185.466,37.893,185.977,37.909,186.296,38.26z"/>
		<path fill="#F5F5F5" d="M205.881,37h4.148v0.399c0,0.224-0.079,0.542-0.191,0.702c-0.159,0.255,0,0.495,1.197,1.819
			c0.766,0.846,1.388,1.676,1.388,1.835c0,0.159,0.367,0.638,0.798,1.069c0.447,0.431,0.798,0.862,0.798,0.941
			s0.192,0.351,0.415,0.59c0.945,1.012,2.937,5.523,2.937,5.649c0,0.096,0.111,0.415,0.255,0.702
			c0.335,0.686,0.767,0.606,0.83-0.144c0.032-0.303,0.128-0.639,0.224-0.75c0.096-0.128,0.096-0.288-0.017-0.495
			c-0.191-0.351-0.191-0.383-0.048-5.458c0.08-2.776,0.176-4.037,0.335-4.34c0.352-0.67,0.144-0.941-0.686-0.909
			c-1.085,0.063-1.42-0.335-1.021-1.213L217.418,37h2.617c2.425,0,2.601,0.016,2.601,0.287c0,0.447-0.526,0.846-1.261,0.941
			c-1.085,0.144-1.117,0.24-0.989,3.399c0.096,2.042,0.063,2.968-0.08,3.431c-0.111,0.383-0.223,2.154-0.287,4.372
			c-0.048,2.218-0.159,3.814-0.255,3.91c-0.526,0.526,0.159,1.42,0.989,1.26c0.702-0.144,1.244,0.224,1.244,0.83
			c0,0.813-0.175,0.877-2.553,0.877h-2.17l-0.447-0.462c-0.542-0.575-0.479-0.878,0.304-1.197c0.59-0.255,0.702-0.575,0.318-0.894
			c-0.127-0.111-0.239-0.287-0.239-0.383c0-0.399-1.005-2.776-1.5-3.526c-0.287-0.447-0.846-1.484-1.26-2.33
			c-0.415-0.846-0.926-1.691-1.149-1.899s-0.398-0.431-0.398-0.495c0-0.208-0.91-1.484-1.356-1.899
			c-0.239-0.224-0.591-0.67-0.767-1.021c-0.337-0.591-0.859-1.858-1.483-1.628c-0.224,0.08-0.239,0.399-0.128,2.809
			c0.064,1.835,0.048,2.776-0.063,2.904c-0.191,0.24-0.319,8.41-0.128,8.713c0.063,0.111,0.304,0.191,0.526,0.191
			c0.559,0,1.006,0.431,1.006,0.973c0,0.638-0.383,0.782-2.219,0.782c-0.894,0-1.644,0.064-1.691,0.16
			c-0.335,0.527-1.818-0.255-1.579-0.846c0.144-0.399,0.798-0.75,1.404-0.75c0.303,0,0.606-0.096,0.686-0.208
			c0.064-0.096,0.128-1.34,0.144-2.744c0.017-1.404,0.08-2.904,0.144-3.319c0.08-0.511,0.048-0.846-0.063-0.958
			c-0.224-0.223-0.224-0.861-0.016-0.989c0.096-0.048,0.159-0.606,0.159-1.229c0-0.638,0.08-1.388,0.191-1.675
			c0.16-0.431,0.16-0.606,0-0.846c-0.224-0.367-0.255-0.894-0.048-1.021c0.224-0.144,0.399-2.649,0.191-2.856
			c-0.096-0.096-0.175-0.319-0.175-0.495c0-0.447-0.463-0.894-0.958-0.894c-0.542,0-0.798-0.271-0.798-0.83V37z"/>
		<path fill="#F5F5F5" d="M242.81,54.313c0,0.224-0.83,1.037-1.053,1.037c-0.096,0-0.336,0.176-0.543,0.399
			c-0.415,0.447-1.835,1.197-2.25,1.197c-0.159,0-0.335,0.064-0.383,0.16c-0.048,0.08-0.415,0.16-0.798,0.16s-0.75,0.064-0.798,0.16
			c-0.144,0.223-7.579,0.208-7.851-0.032c-0.304-0.239-0.256-1.085,0.08-1.34c0.144-0.111,0.605-0.223,1.021-0.223
			s0.798-0.08,0.846-0.176c0.191-0.287,0.128-15.638-0.063-15.829c-0.111-0.111-0.367-0.096-0.83,0.048
			c-0.463,0.16-0.718,0.176-0.909,0.048c-0.335-0.207-0.352-1.005-0.032-1.165c0.958-0.479,1.133-0.511,2.33-0.399
			c0.974,0.08,1.388,0.048,1.819-0.144c0.798-0.351,2.313-0.319,3.351,0.063c0.479,0.176,1.021,0.319,1.213,0.319
			c0.398,0,1.229,0.399,1.5,0.718c0.111,0.127,0.287,0.239,0.383,0.239c0.224,0,2.809,2.633,3.096,3.144
			c0.096,0.207,0.191,0.495,0.191,0.67c0,0.16,0.111,0.383,0.239,0.495c0.351,0.287,0.718,1.101,0.718,1.596
			c0,0.239,0.144,0.559,0.319,0.718c0.287,0.271,0.319,0.495,0.319,2.792c0,2.569-0.128,3.175-0.718,3.67
			c-0.128,0.112-0.24,0.287-0.24,0.383C243.767,53.254,242.81,54.091,242.81,54.313z M241.055,42.84
			c0-0.224-1.835-2.011-2.346-2.298c-0.208-0.096-0.559-0.191-0.798-0.191s-0.574-0.128-0.75-0.303
			c-0.431-0.383-3.559-0.606-4.005-0.287c-0.24,0.191-0.256,0.894-0.271,7.978c0,5.92,0.048,7.835,0.191,8.01
			c0.159,0.192,0.526,0.224,1.979,0.16c0.974-0.048,2.059-0.175,2.409-0.255c2.3-0.598,2.204-0.723,3.415-1.707
			c0.271-0.192,0.846-0.91,1.292-1.58l0.814-1.212l-0.064-2.09c-0.063-2.33-0.191-3-0.813-4.181
			c-0.224-0.463-0.415-0.926-0.415-1.053C241.693,43.547,241.055,43.084,241.055,42.84z"/>
		<path fill="#F5F5F5" d="M260.568,51.823c0-0.144-0.112-0.351-0.24-0.462c-0.127-0.096-0.335-0.559-0.462-1.021
			c-0.144-0.447-0.415-0.989-0.639-1.197l-0.383-0.351l-0.639,0.319c-0.351,0.175-0.686,0.399-0.75,0.495
			c-0.048,0.08-0.574,0.287-1.164,0.463c-1.644,0.495-1.58,0.399-1.676,3c-0.08,2.41,0,2.745,0.654,2.537
			c0.351-0.111,1.309,0.575,1.309,0.941c0,0.112-0.191,0.383-0.415,0.623c-0.399,0.383-0.526,0.415-1.756,0.415
			c-0.718,0-1.372,0.063-1.42,0.159c-0.144,0.224-0.925,0.208-1.165-0.032c-0.431-0.431-0.031-1.564,0.543-1.564
			c0.111,0,0.303-0.111,0.446-0.239c0.192-0.191,0.224-0.526,0.145-1.644c-0.064-0.973-0.032-1.516,0.111-1.771
			c0.239-0.479,0.271-6.16,0.016-6.462c-0.096-0.112-0.191-1.356-0.207-3.064l-0.048-2.856l-0.878-0.08
			c-0.846-0.08-0.878-0.096-0.926-0.574c-0.048-0.431,0.032-0.527,0.543-0.782c0.734-0.351,2.729-0.877,4.34-1.149
			c0.304-0.048,0.575-0.191,0.623-0.303c0.063-0.176,0.526-0.224,2.122-0.224h2.042l0.687,0.638
			c2.106,1.931,2.537,2.665,2.537,4.324c0,0.59-0.063,1.133-0.159,1.181c-0.08,0.048-0.16,0.303-0.16,0.542
			c0,0.574-0.766,2.09-1.053,2.09c-0.128,0-0.224,0.096-0.224,0.223c0,0.239-1.755,1.789-1.755,2.027
			c0,0.191,1.005,2.282,2.394,4.931c0.239,0.479,0.51,1.085,0.59,1.356c0.208,0.75,0.734,0.718,1.452-0.08l0.591-0.67l0.446,0.351
			c0.239,0.191,0.431,0.479,0.431,0.638c0,0.16-0.766,1.038-1.707,1.979c-1.276,1.245-1.835,1.691-2.139,1.691
			c-0.766,0-1.037-0.67-0.462-1.197c0.67-0.606,0.574-1.516-0.256-2.521c-0.207-0.255-0.383-0.59-0.383-0.734
			C261.525,53.424,260.568,52.155,260.568,51.823z M258.11,38.42c-0.048,0.08-0.319,0.175-0.606,0.223
			c-1.739,0.303-2.17,0.399-2.553,0.559c-0.687,0.287-0.782,0.638-0.591,2.138c0.096,0.718,0.224,2.585,0.271,4.117
			c0.064,1.532,0.176,2.888,0.239,2.984c0.191,0.303,0.83,0.255,1.133-0.096c0.16-0.175,0.575-0.335,1.021-0.383
			c0.526-0.064,0.83-0.191,1.069-0.479c0.487-0.576,1.35-0.893,1.963-1.404c0.287-0.255,0.59-0.463,0.67-0.463
			c0.159,0,1.117-1.372,1.117-1.612c0-0.08,0.144-0.431,0.319-0.782c0.479-0.941,0.414-1.691-0.24-2.713
			c-0.303-0.479-0.59-0.989-0.638-1.133c-0.11-0.329-1.239-0.82-1.548-0.957C259.371,38.228,258.222,38.244,258.11,38.42z"/>
		<path fill="#F5F5F5" d="M278.093,48.488c-0.958,0-1.261,0.415-0.91,1.245c0.208,0.479,0.239,1.021,0.16,2.856
			c-0.08,1.947-0.048,2.298,0.159,2.473c0.176,0.144,0.861,0.208,2.187,0.224c3.121,0.046,2.106,0.158,5.585,0
			c1.531-0.064,1.851-0.319,1.851-1.516c0-0.83,0.207-1.133,0.734-1.133c0.526,0,0.67,0.287,0.766,1.596
			c0.224,2.633,0.191,3.702-0.111,3.894c-0.367,0.239-0.719,0-1.165-0.798c-0.319-0.559-0.415-0.623-0.894-0.575
			c-1.102,0.112-4.867,0.351-5.474,0.367c-0.351,0-1.181-0.08-1.835-0.176c-1.34-0.207-1.229-0.207-3.957-0.063
			c-2.202,0.111-2.426,0.032-2.426-0.83c0-0.702,0.415-0.925,1.532-0.813c0.67,0.063,0.926,0.032,1.165-0.176
			c0.303-0.255,0.303-0.383,0.159-3.383c-0.195-3.485-0.463-6.755-0.511-10.021c-0.032-2.09-0.159-2.425-0.798-2.09
			c-0.415,0.24-1.229-0.399-1.229-0.957c0-0.479,0.271-0.575,1.915-0.606c0.829-0.016,1.691-0.032,1.915-0.032
			c0.223-0.016,2.297,0.016,4.627,0.048c3.702,0.064,4.261,0.048,4.5-0.175c0.159-0.144,0.287-0.383,0.287-0.559
			c0-0.223,0.128-0.287,0.639-0.287h0.638v2.138c0,2.346-0.08,2.553-0.909,2.458c-0.383-0.048-0.447-0.128-0.495-0.606
			c-0.031-0.319-0.239-0.798-0.494-1.101c-0.399-0.479-0.526-0.542-1.213-0.526c-0.431,0.016-0.989,0.096-1.229,0.207
			c-0.256,0.096-0.767,0.128-1.276,0.08c-1.054-0.128-1.596-0.128-2.617,0c-0.447,0.048-1.229,0.016-1.739-0.08
			c-0.798-0.144-0.989-0.144-1.181,0.064c-0.208,0.208-0.208,0.319-0.032,0.766c0.271,0.638,0.526,3.111,0.511,4.835
			c-0.016,1.101,0.032,1.34,0.303,1.58c0.256,0.223,0.399,0.255,0.687,0.127c0.974-0.431,1.563-0.59,2.585-0.654
			c0.622-0.032,1.181-0.127,1.276-0.207c0.224-0.224,0.974-0.176,1.181,0.08c0.112,0.127,0.176,0.511,0.144,0.846
			c-0.048,0.511-0.111,0.623-0.446,0.654c-0.224,0.032-0.463,0.127-0.559,0.208c-0.08,0.08-0.559,0.144-1.053,0.144
			C279.932,48.01,279.118,48.488,278.093,48.488z"/>
		<path fill="#F5F5F5" d="M308.958,54.313c0,0.224-0.83,1.037-1.053,1.037c-0.096,0-0.336,0.176-0.543,0.399
			c-0.415,0.447-1.835,1.197-2.25,1.197c-0.159,0-0.335,0.064-0.383,0.16c-0.048,0.08-0.415,0.16-0.798,0.16s-0.75,0.064-0.798,0.16
			c-0.144,0.223-7.579,0.208-7.851-0.032c-0.304-0.239-0.256-1.085,0.08-1.34c0.144-0.111,0.605-0.223,1.021-0.223
			s0.798-0.08,0.846-0.176c0.191-0.287,0.128-15.638-0.063-15.829c-0.111-0.111-0.367-0.096-0.83,0.048
			c-0.463,0.16-0.718,0.176-0.909,0.048c-0.335-0.207-0.352-1.005-0.032-1.165c0.958-0.479,1.133-0.511,2.33-0.399
			c0.974,0.08,1.388,0.048,1.819-0.144c0.798-0.351,2.313-0.319,3.351,0.063c0.479,0.176,1.021,0.319,1.213,0.319
			c0.398,0,1.229,0.399,1.5,0.718c0.111,0.127,0.287,0.239,0.383,0.239c0.224,0,2.809,2.633,3.096,3.144
			c0.096,0.207,0.191,0.495,0.191,0.67c0,0.16,0.111,0.383,0.239,0.495c0.351,0.287,0.718,1.101,0.718,1.596
			c0,0.239,0.144,0.559,0.319,0.718c0.287,0.271,0.319,0.495,0.319,2.792c0,2.569-0.128,3.175-0.718,3.67
			c-0.128,0.112-0.24,0.287-0.24,0.383C309.915,53.254,308.958,54.091,308.958,54.313z M307.204,42.84
			c0-0.224-1.835-2.011-2.346-2.298c-0.208-0.096-0.559-0.191-0.798-0.191s-0.574-0.128-0.75-0.303
			c-0.431-0.383-3.559-0.606-4.005-0.287c-0.24,0.191-0.256,0.894-0.271,7.978c0,5.92,0.048,7.835,0.191,8.01
			c0.159,0.192,0.526,0.224,1.979,0.16c0.974-0.048,2.059-0.175,2.409-0.255c2.3-0.598,2.204-0.723,3.415-1.707
			c0.271-0.192,0.846-0.91,1.292-1.58l0.814-1.212l-0.064-2.09c-0.063-2.33-0.191-3-0.813-4.181
			c-0.224-0.463-0.415-0.926-0.415-1.053C307.841,43.547,307.204,43.084,307.204,42.84z"/>
	</g>
	<path fill="#F5F5F5" d="M157.334,76.886c0.702,0,0.878,0.064,1.261,0.463s0.431,0.558,0.352,1.005
		c-0.178,0.798-0.204,1.541-0.702,2.075c-0.367,0.399-0.511,0.447-1.532,0.447c-1.404,0-1.691-0.224-1.691-1.309
		c0-0.83,0.224-1.309,1.021-2.17C156.457,76.95,156.617,76.886,157.334,76.886z"/>
	<g>
		<path fill="#F5F5F5" d="M153.164,101.998c0.325,0.255,0.937,0.146,1.123-0.208c0.035-0.069,0.164-0.345,0.273-0.597
			c0.102-0.226,0.348-0.556,0.594-0.801c0.579-0.562,0.579-0.765,0.579-0.851c0-0.349-0.245-0.701-0.793-0.701
			c-0.18,0-0.379,0.039-0.589,0.114c-0.014,0.005-0.027,0.01-0.039,0.015c-0.028-0.029-0.061-0.065-0.079-0.085
			c-0.181-0.19-0.313-0.286-0.41-0.334c-0.052-0.106-0.166-0.337-0.419-0.376c-0.016-0.011-0.037-0.028-0.055-0.049
			c-0.154-0.17-0.378-0.296-0.588-0.287l-0.083-0.052c-0.225-0.237-0.463-0.276-0.946-0.276l-0.196,0.002
			c-0.543,0.009-0.943,0.069-1.254,0.189c-0.209,0.077-0.392,0.13-0.411,0.135c-0.118,0-0.28,0-0.998,0.718
			c-0.263,0.268-1.122,1.19-1.122,1.867c-0.003,0.061-0.082,0.238-0.129,0.346c-0.097,0.219-0.198,0.446-0.212,0.751
			c-0.104,0.132-0.157,0.347-0.157,0.642c0,0.085-0.007,0.151-0.014,0.191c-0.076,0.1-0.152,0.297-0.152,0.723
			c0,0.128-0.01,0.224-0.019,0.277c-0.124,0.147-0.146,0.349-0.146,0.472c0,0.118,0.02,0.311,0.148,0.465
			c0.007,0.039,0.016,0.108,0.016,0.199c0,0.282,0.048,0.491,0.156,0.631c0.005,0.024,0.01,0.065,0.01,0.117
			c0,0.184,0.034,0.514,0.292,0.67c-0.09-0.044-0.125-0.106-0.126-0.096c0,0.241,0.184,0.523,0.359,0.689
			c0.097,0.097,0.155,0.175,0.167,0.196l-0.026-0.002c0.147,0.348,1.081,0.963,1.081,1.095v0.002c0,0.006,0.075,0.031,0.106,0.065
			c0.149,0.165,0.397,0.279,0.632,0.293c0.118,0.106,0.376,0.161,1.248,0.161c0.849,0,1.112-0.052,1.236-0.155
			c0.162-0.034,0.565-0.044,0.758-0.264c0.032-0.03,0.176-0.124,0.351-0.205c0.406-0.192,0.572-0.363,0.561-0.516
			c0.034-0.08,0.209-0.267,0.313-0.342c0.073,0.021,0.195,0.066,0.307,0.124c0.325,0.18,0.609,0.246,0.859,0.091
			c0.209-0.128,0.339-0.353,0.347-0.601c0.008-0.245-0.104-0.474-0.343-0.651c-0.122-0.328-0.662-0.858-0.98-0.956l0.004-0.007
			c-0.271-0.322-0.752-0.491-1.087-0.491c-0.279,0-0.442,0.104-0.53,0.192c-0.177,0.177-0.208,0.364-0.203,0.49
			c0.013,0.319,0.267,0.572,0.461,0.737c0.165,0.138,0.194,0.215,0.149,0.166l-0.539,0.345c-0.319,0.209-0.625,0.312-1.178,0.394
			l-0.282,0.045c-0.191,0.03-0.383,0.061-0.484,0.08c-0.08,0.014-0.069,0.086-0.235-0.048c-0.189-0.15-0.474-0.255-0.652-0.255
			c-0.233-0.065-0.932-0.956-1.128-1.744c-0.083-0.372-0.106-1.39-0.069-1.646c0.114-0.194,0.128-0.48,0.128-0.609
			c0-0.077,0.008-0.142,0.016-0.183c0.129-0.151,0.149-0.37,0.156-0.487c0.106-0.12,0.161-0.311,0.161-0.568
			c0-0.038,0.004-0.073,0.009-0.099c0.114-0.123,0.158-0.297,0.158-0.428c0.009-0.104,0.163-0.406,0.245-0.479
			c0.104-0.091,0.215-0.238,0.246-0.403c0.102-0.14,0.472-0.433,0.59-0.467c0.144-0.026,0.376-0.089,0.54-0.137
			c0.09-0.029,0.291-0.062,0.583-0.062c0.326,0,0.588,0.039,0.699,0.076c0.359,0.124,0.879,0.496,1.049,0.751
			c0.101,0.152,0.109,0.164-0.067,0.421C152.873,100.782,152.774,101.664,153.164,101.998z"/>
		<path fill="#F5F5F5" d="M165.741,104.835l0.003-0.007c-0.271-0.322-0.751-0.491-1.087-0.491c-0.278,0-0.441,0.104-0.53,0.193
			c-0.176,0.177-0.207,0.364-0.201,0.49c0.013,0.318,0.267,0.571,0.46,0.736c0.172,0.143,0.189,0.208,0.148,0.166l-0.538,0.346
			c-0.317,0.208-0.624,0.311-1.177,0.393l-0.283,0.045c-0.191,0.03-0.383,0.061-0.483,0.08c-0.082,0.015-0.065,0.088-0.236-0.048
			c-0.189-0.15-0.452-0.23-0.651-0.255c-0.232-0.065-0.932-0.956-1.128-1.744c-0.083-0.372-0.106-1.39-0.069-1.646
			c0.114-0.194,0.128-0.48,0.128-0.609c0-0.076,0.008-0.142,0.016-0.182c0.131-0.152,0.15-0.373,0.156-0.49
			c0.13-0.148,0.161-0.379,0.161-0.566c0-0.038,0.004-0.073,0.009-0.098c0.114-0.124,0.158-0.298,0.158-0.429
			c0.01-0.104,0.162-0.407,0.242-0.478c0.105-0.091,0.217-0.238,0.248-0.405c0.102-0.14,0.472-0.433,0.59-0.467
			c0.144-0.026,0.377-0.089,0.54-0.137c0.09-0.029,0.29-0.062,0.583-0.062c0.325,0,0.588,0.039,0.698,0.076
			c0.359,0.124,0.879,0.496,1.049,0.751c0.102,0.151,0.109,0.164-0.067,0.421c-0.26,0.362-0.358,1.245,0.032,1.578
			c0.324,0.254,0.936,0.147,1.123-0.21c0.035-0.069,0.164-0.344,0.271-0.595c0.103-0.225,0.349-0.556,0.594-0.8
			c0.58-0.562,0.58-0.765,0.58-0.852c0-0.349-0.245-0.701-0.793-0.701c-0.181,0-0.379,0.039-0.588,0.114
			c-0.015,0.005-0.028,0.01-0.04,0.015c-0.028-0.029-0.061-0.065-0.078-0.085c-0.181-0.19-0.313-0.286-0.411-0.335
			c-0.056-0.115-0.187-0.381-0.473-0.424c-0.154-0.17-0.372-0.266-0.588-0.287l-0.083-0.052c-0.225-0.237-0.463-0.276-0.946-0.276
			l-0.196,0.002c-0.543,0.009-0.943,0.069-1.255,0.189c-0.208,0.077-0.391,0.129-0.41,0.135c-0.111,0-0.28,0-0.998,0.718
			c-0.264,0.267-1.123,1.19-1.123,1.867c-0.003,0.061-0.082,0.239-0.129,0.346c-0.098,0.22-0.198,0.446-0.213,0.751
			c-0.104,0.132-0.156,0.347-0.156,0.642c0,0.083-0.008,0.151-0.015,0.191c-0.075,0.099-0.152,0.296-0.152,0.723
			c0,0.128-0.01,0.224-0.019,0.277c-0.124,0.146-0.146,0.349-0.146,0.472c0,0.117,0.02,0.31,0.148,0.464
			c0.008,0.039,0.016,0.109,0.016,0.2c0,0.282,0.048,0.491,0.156,0.631c0.005,0.023,0.011,0.065,0.011,0.117
			c0,0.185,0.034,0.515,0.293,0.67c-0.091-0.044-0.126-0.106-0.127-0.096c0,0.242,0.184,0.524,0.358,0.689
			c0.099,0.098,0.157,0.176,0.169,0.197l-0.199-0.002c0.148,0.348,0.907,0.962,0.907,1.094v0.002c0,0.006,0.248,0.031,0.28,0.066
			c0.149,0.165,0.484,0.278,0.718,0.292c0.118,0.106,0.42,0.161,1.291,0.161c0.853,0,1.136-0.053,1.259-0.156
			c0.156-0.027,0.574-0.041,0.768-0.263c0.031-0.03,0.18-0.124,0.357-0.205c0.405-0.192,0.574-0.363,0.564-0.516
			c0.033-0.08,0.21-0.267,0.314-0.342c0.073,0.021,0.195,0.066,0.307,0.125c0.327,0.179,0.614,0.245,0.859,0.09
			c0.209-0.128,0.339-0.353,0.348-0.601c0.008-0.245-0.104-0.474-0.343-0.651C166.599,105.463,166.059,104.933,165.741,104.835z"/>
	</g>
</g>
</svg>
